<svg xmlns="http://www.w3.org/2000/svg" width="31.5" height="31.5" viewBox="0 0 31.5 31.5">
  <path id="Icon_awesome-plus-square" data-name="Icon awesome-plus-square" d="M28.125,2.25H3.375A3.376,3.376,0,0,0,0,5.625v24.75A3.376,3.376,0,0,0,3.375,33.75h24.75A3.376,3.376,0,0,0,31.5,30.375V5.625A3.376,3.376,0,0,0,28.125,2.25Zm-2.25,17.719a.846.846,0,0,1-.844.844H18.563v6.469a.846.846,0,0,1-.844.844H13.781a.846.846,0,0,1-.844-.844V20.813H6.469a.846.846,0,0,1-.844-.844V16.031a.846.846,0,0,1,.844-.844h6.469V8.719a.846.846,0,0,1,.844-.844h3.938a.846.846,0,0,1,.844.844v6.469h6.469a.846.846,0,0,1,.844.844Z" transform="translate(0 -2.25)" fill="#ff6550"/>
</svg>
